<svg xmlns="http://www.w3.org/2000/svg" version="1.1" xmlns:xlink="http://www.w3.org/1999/xlink" xmlns:svgjs="http://svgjs.dev/svgjs" width="1500" height="1500" viewBox="0 0 1500 1500"><rect width="1500" height="1500" fill="#ffffff"></rect><g transform="matrix(0.6666666666666666,0,0,0.6666666666666666,249.39393939393938,458.31593615188024)"><svg viewBox="0 0 396 231" data-background-color="#ffffff" preserveAspectRatio="xMidYMid meet" height="875" width="1500" xmlns="http://www.w3.org/2000/svg" xmlns:xlink="http://www.w3.org/1999/xlink"><g id="tight-bounds" transform="matrix(1,0,0,1,0.2400000000000091,0.006889283855429085)"><svg viewBox="0 0 395.52 230.98622143228914" height="230.98622143228914" width="395.52"><g><svg viewBox="0 0 395.52 230.98622143228914" height="230.98622143228914" width="395.52"><g transform="matrix(1,0,0,1,0,142.7587515527711)"><svg viewBox="0 0 395.52 88.22746987951807" height="88.22746987951807" width="395.52"><g id="textblocktransform"><svg viewBox="0 0 395.52 88.22746987951807" height="88.22746987951807" width="395.52" id="textblock"><g><svg viewBox="0 0 395.52 88.22746987951807" height="88.22746987951807" width="395.52"><g transform="matrix(1,0,0,1,0,0)"><svg width="395.52" viewBox="1.15 -36.55 208.7 46.559999999999995" height="88.22746987951807" data-palette-color="#89939e"><path d="M21.14-13.31L21.14-13.31Q21.14-14.67 20.62-15.95 20.09-17.24 19.19-18.23 18.29-19.21 17.08-19.81 15.87-20.41 14.5-20.41L14.5-20.41Q13.13-20.41 11.93-19.95 10.72-19.48 9.83-18.58 8.94-17.68 8.42-16.35 7.91-15.01 7.91-13.31L7.91-13.31Q7.91-11.67 8.42-10.36 8.94-9.06 9.83-8.13 10.72-7.2 11.93-6.7 13.13-6.2 14.5-6.2L14.5-6.2Q15.87-6.2 17.08-6.8 18.29-7.4 19.19-8.39 20.09-9.38 20.62-10.66 21.14-11.94 21.14-13.31ZM27.86-26.1L27.86-3.3Q27.86-0.54 26.81 1.88 25.76 4.3 23.94 6.1 22.12 7.91 19.69 8.96 17.26 10.01 14.5 10.01L14.5 10.01 11.16 9.96 11.16 3.3 14.45 3.34Q16.02 3.34 17.11 2.94 18.21 2.54 18.97 1.84 19.73 1.15 20.18 0.24 20.63-0.66 20.9-1.66L20.9-1.66Q20.51-1.03 19.78-0.62 19.04-0.22 18.15 0.04 17.26 0.29 16.3 0.39 15.33 0.49 14.5 0.49L14.5 0.49Q11.74 0.49 9.31-0.46 6.88-1.42 5.07-3.19 3.25-4.96 2.2-7.52 1.15-10.08 1.15-13.31L1.15-13.31Q1.15-16.26 2.2-18.8 3.25-21.34 5.07-23.19 6.88-25.05 9.31-26.1 11.74-27.15 14.5-27.15L14.5-27.15Q15.77-27.15 17.02-26.83 18.26-26.51 19.43-25.95 20.61-25.39 21.67-24.63 22.73-23.88 23.66-23L23.66-23 26.25-26.1 27.86-26.1ZM58.25-26.1L58.25 0 56.64 0 54.05-3.59Q53.1-2.73 52.04-1.99 50.97-1.25 49.8-0.7 48.63-0.15 47.4 0.17 46.16 0.49 44.89 0.49L44.89 0.49Q42.14 0.49 39.71-0.44 37.28-1.37 35.46-3.14 33.64-4.91 32.59-7.47 31.54-10.03 31.54-13.31L31.54-13.31Q31.54-16.36 32.59-18.91 33.64-21.46 35.46-23.29 37.28-25.12 39.71-26.14 42.14-27.15 44.89-27.15L44.89-27.15Q46.16-27.15 47.41-26.83 48.65-26.51 49.83-25.95 51-25.39 52.06-24.63 53.12-23.88 54.05-23L54.05-23 56.64-26.1 58.25-26.1ZM51.54-13.31L51.54-13.31Q51.54-14.67 51.01-15.95 50.49-17.24 49.58-18.23 48.68-19.21 47.47-19.81 46.26-20.41 44.89-20.41L44.89-20.41Q43.53-20.41 42.32-19.95 41.11-19.48 40.22-18.58 39.33-17.68 38.82-16.35 38.3-15.01 38.3-13.31L38.3-13.31Q38.3-11.6 38.82-10.27 39.33-8.94 40.22-8.03 41.11-7.13 42.32-6.67 43.53-6.2 44.89-6.2L44.89-6.2Q46.26-6.2 47.47-6.8 48.68-7.4 49.58-8.39 50.49-9.38 51.01-10.66 51.54-11.94 51.54-13.31ZM96.58-16.6L96.58 0 89.94 0 89.94-16.6Q89.94-17.29 89.68-17.9 89.42-18.51 88.96-18.97 88.5-19.43 87.89-19.69 87.28-19.95 86.59-19.95L86.59-19.95Q85.91-19.95 85.31-19.69 84.71-19.43 84.26-18.97 83.81-18.51 83.55-17.9 83.3-17.29 83.3-16.6L83.3-16.6 83.3 0 76.63 0 76.63-16.6Q76.63-17.29 76.37-17.9 76.12-18.51 75.65-18.97 75.19-19.43 74.58-19.69 73.97-19.95 73.29-19.95L73.29-19.95Q72.6-19.95 72-19.69 71.41-19.43 70.95-18.97 70.5-18.51 70.25-17.9 69.99-17.29 69.99-16.6L69.99-16.6 69.99 0 63.33 0 63.33-26.15 64.94-26.15 66.74-24.15Q68.13-25.32 69.81-25.96 71.48-26.61 73.29-26.61L73.29-26.61Q75.12-26.61 76.86-25.93 78.61-25.24 79.93-23.56L79.93-23.56Q80.54-24.39 81.32-24.98 82.1-25.56 82.97-25.93 83.83-26.29 84.76-26.45 85.69-26.61 86.59-26.61L86.59-26.61Q88.67-26.61 90.49-25.83 92.3-25.05 93.66-23.69 95.01-22.34 95.8-20.51 96.58-18.68 96.58-16.6L96.58-16.6ZM124.33-21.46L111.83-6.4Q112.22-6.27 112.61-6.24 113.01-6.2 113.4-6.2L113.4-6.2Q114.37-6.2 115.28-6.47 116.18-6.74 116.97-7.24 117.77-7.74 118.39-8.46 119.01-9.18 119.4-10.06L119.4-10.06 124.28-5.15Q123.36-3.83 122.15-2.78 120.94-1.73 119.54-1 118.13-0.27 116.58 0.11 115.03 0.49 113.4 0.49L113.4 0.49Q110.64 0.49 108.21-0.54 105.78-1.56 103.96-3.39 102.14-5.22 101.09-7.75 100.04-10.28 100.04-13.31L100.04-13.31Q100.04-16.41 101.09-18.97 102.14-21.53 103.96-23.34 105.78-25.15 108.21-26.15 110.64-27.15 113.4-27.15L113.4-27.15Q115.03-27.15 116.59-26.76 118.16-26.37 119.56-25.63 120.96-24.9 122.18-23.84 123.41-22.78 124.33-21.46L124.33-21.46ZM107.49-9.84L115.25-20.14Q114.79-20.31 114.34-20.36 113.88-20.41 113.4-20.41L113.4-20.41Q112.03-20.41 110.82-19.91 109.61-19.41 108.72-18.48 107.83-17.55 107.32-16.25 106.8-14.94 106.8-13.31L106.8-13.31Q106.8-12.94 106.84-12.48 106.88-12.01 106.96-11.54 107.05-11.06 107.17-10.62 107.29-10.18 107.49-9.84L107.49-9.84ZM134.34-14.94L134.34 0 127.68 0 127.68-36.55 134.34-36.55 134.34-25Q135.54-25.9 136.81-26.28 138.08-26.66 139.39-26.66L139.39-26.66Q141.81-26.66 143.94-25.74 146.06-24.83 147.63-23.23 149.21-21.63 150.12-19.49 151.04-17.36 151.04-14.94L151.04-14.94 151.04 0 144.33 0 144.33-14.94 144.37-14.94Q144.37-15.97 143.98-16.88 143.59-17.8 142.91-18.48 142.23-19.17 141.32-19.56 140.42-19.95 139.39-19.95L139.39-19.95Q138.34-19.95 137.42-19.56 136.49-19.17 135.81-18.48 135.12-17.8 134.73-16.88 134.34-15.97 134.34-14.94L134.34-14.94ZM176.99 0L174.79-3.05Q173.99-2.32 173.07-1.67 172.16-1.03 171.15-0.55 170.15-0.07 169.09 0.21 168.03 0.49 166.93 0.49L166.93 0.49Q164.51 0.49 162.39-0.37 160.27-1.22 158.67-2.8 157.07-4.37 156.15-6.63 155.24-8.89 155.24-11.69L155.24-11.69 155.24-26.15 161.88-26.15 161.88-11.69Q161.88-10.38 162.28-9.34 162.68-8.3 163.37-7.59 164.05-6.88 164.97-6.52 165.88-6.15 166.93-6.15L166.93-6.15Q167.96-6.15 168.87-6.63 169.79-7.1 170.47-7.89 171.15-8.67 171.55-9.66 171.94-10.64 171.94-11.69L171.94-11.69 171.94-26.15 178.6-26.15 178.6 0 176.99 0ZM209.85-13.31L209.85-13.31Q209.85-10.23 208.8-7.69 207.75-5.15 205.94-3.33 204.14-1.51 201.71-0.51 199.28 0.49 196.49 0.49L196.49 0.49Q193.74 0.49 191.31-0.54 188.88-1.56 187.06-3.39 185.24-5.22 184.19-7.75 183.14-10.28 183.14-13.31L183.14-13.31 183.14-36.55 189.83-36.55 189.83-24.34Q190.37-25.02 191.13-25.56 191.9-26.1 192.8-26.44 193.69-26.78 194.64-26.97 195.59-27.15 196.49-27.15L196.49-27.15Q199.28-27.15 201.71-26.11 204.14-25.07 205.94-23.22 207.75-21.36 208.8-18.84 209.85-16.31 209.85-13.31ZM203.13-13.31L203.13-13.31Q203.13-14.82 202.61-16.13 202.08-17.43 201.18-18.38 200.28-19.34 199.07-19.87 197.86-20.41 196.49-20.41L196.49-20.41Q195.13-20.41 193.92-19.81 192.71-19.21 191.81-18.23 190.9-17.24 190.39-15.95 189.88-14.67 189.88-13.31L189.88-13.31Q189.88-11.79 190.39-10.5 190.9-9.2 191.81-8.25 192.71-7.3 193.92-6.75 195.13-6.2 196.49-6.2L196.49-6.2Q197.86-6.2 199.07-6.75 200.28-7.3 201.18-8.25 202.08-9.2 202.61-10.5 203.13-11.79 203.13-13.31Z" opacity="1" transform="matrix(1,0,0,1,0,0)" fill="#000000" class="wordmark-text-0" data-fill-palette-color="primary" id="text-0"></path></svg></g></svg></g></svg></g></svg></g><g transform="matrix(1,0,0,1,136.79481831325302,0)"><svg viewBox="0 0 121.93036337349395 121.93036337349398" height="121.93036337349398" width="121.93036337349395"><g><svg></svg></g><g id="icon-0"><svg viewBox="0 0 121.93036337349395 121.93036337349398" height="121.93036337349398" width="121.93036337349395"><g><path transform="scale(1.2193,1.2193)" d="M30 100c-16.569 0-30-13.431-30-30v-40c0-16.569 13.431-30 30-30h40c16.569 0 30 13.431 30 30v40c0 16.569-13.431 30-30 30z" fill="#000000" fill-rule="nonzero" stroke="none" stroke-width="1" stroke-linecap="butt" stroke-linejoin="miter" stroke-miterlimit="10" stroke-dasharray="" stroke-dashoffset="0" font-family="none" font-weight="none" font-size="none" text-anchor="none" style="mix-blend-mode: normal" data-fill-palette-color="accent"></path></g><g transform="matrix(1,0,0,1,24.38607267469878,39.38350736963855)"><svg viewBox="0 0 73.15821802409639 43.16334863421687" height="43.16334863421687" width="73.15821802409639"><g><svg version="1.1" xmlns="http://www.w3.org/2000/svg" xmlns:xlink="http://www.w3.org/1999/xlink" x="0" y="0" viewBox="0 0 100 59" enable-background="new 0 0 100 59" xml:space="preserve" height="43.16334863421687" width="73.15821802409639" class="icon-cg-0" data-fill-palette-color="quaternary" id="cg-0"><path d="M97.901 18l-0.003 0.001C96.896 7.895 88.372 0 78 0c-3.855 0-7.444 1.11-10.498 3H32.498C29.444 1.11 25.855 0 22 0 11.628 0 3.104 7.895 2.102 18.001L2.099 18C1.751 22.175 0 50.691 0 51c0 4.418 3.581 8 8 8 18.377 0 25.943-15.686 28.666-24h26.668C66.057 43.314 73.623 59 92 59c4.419 0 8-3.582 8-8C100 50.691 98.249 22.175 97.901 18zM22 32c-6.629 0-12-5.373-12-12S15.371 8 22 8s12 5.373 12 12S28.629 32 22 32zM78 32c-6.629 0-12-5.373-12-12S71.371 8 78 8s12 5.373 12 12S84.629 32 78 32z" fill="#ffffff" data-fill-palette-color="quaternary"></path><polygon points="31,17 25,17 25,11 19,11 19,17 13,17 13,23 19,23 19,29 25,29 25,23 31,23 " fill="#ffffff" data-fill-palette-color="quaternary"></polygon><path d="M78 16c0 2.21-1.79 4-4 4-2.205 0-4-1.79-4-4s1.795-4 4-4C76.21 12 78 13.79 78 16z" fill="#ffffff" data-fill-palette-color="quaternary"></path><path d="M86 24c0 2.21-1.79 4-4 4-2.205 0-4-1.79-4-4s1.795-4 4-4C84.21 20 86 21.79 86 24z" fill="#ffffff" data-fill-palette-color="quaternary"></path></svg></g></svg></g></svg></g></svg></g><g></g></svg></g><defs></defs></svg><rect width="395.52" height="230.98622143228914" fill="none" stroke="none" visibility="hidden"></rect></g></svg></g></svg>